HIERARCHY
ROOT Hips
{
	OFFSET 0.000000 0.000000 0.000000 
	CHANNELS 6 Xposition Yposition Zposition Zrotation Yrotation Xrotation
	JOINT LeftUpLeg
	{
		OFFSET 1.363060 -1.794630 0.839290 
		CHANNELS 3 Zrotation Yrotation Xrotation
		JOINT LeftLeg
		{
			OFFSET 2.448110 -6.726130 0.000000 
			CHANNELS 3 Zrotation Yrotation Xrotation
			JOINT LeftFoot
			{
				OFFSET 2.562200 -7.039590 0.000000 
				CHANNELS 3 Zrotation Yrotation Xrotation
				JOINT LeftToeBase
				{
					OFFSET 0.157640 -0.433110 2.322550 
					CHANNELS 3 Zrotation Yrotation Xrotation
					End Site
					{
						OFFSET 0.000000 0.000000 0.000000 
					}
				}
			}
		}
	}
	JOINT RightUpLeg
	{
		OFFSET -1.305520 -1.794630 0.839290 
		CHANNELS 3 Zrotation Yrotation Xrotation
		JOINT RightLeg
		{
			OFFSET -2.542530 -6.985550 0.000000 
			CHANNELS 3 Zrotation Yrotation Xrotation
			JOINT RightFoot
			{
				OFFSET -2.568260 -7.056230 0.000000 
				CHANNELS 3 Zrotation Yrotation Xrotation
				JOINT RightToeBase
				{
					OFFSET -0.164730 -0.452590 2.363150 
					CHANNELS 3 Zrotation Yrotation Xrotation
					End Site
					{
						OFFSET 0.000000 0.000000 0.000000 
					}
				}
			}
		}
	}
	JOINT Spine
	{
		OFFSET 0.028270 2.035590 -0.193380 
		CHANNELS 3 Zrotation Yrotation Xrotation
		JOINT Spine1
		{
			OFFSET 0.056720 2.048850 -0.042750 
			CHANNELS 3 Zrotation Yrotation Xrotation
			JOINT Neck1
			{
				OFFSET -0.054170 1.746240 0.172020 
				CHANNELS 3 Zrotation Yrotation Xrotation
				JOINT Head
				{
					OFFSET 0.104070 1.761360 -0.123970 
					CHANNELS 3 Zrotation Yrotation Xrotation
					End Site
					{
						OFFSET 0.000000 0.000000 0.000000 
					}
				}
			}
			JOINT LeftArm
			{
				OFFSET 3.362410 1.200890 -0.311210 
				CHANNELS 3 Zrotation Yrotation Xrotation
				JOINT LeftForeArm
				{
					OFFSET 4.983000 -0.000000 -0.000000 
					CHANNELS 3 Zrotation Yrotation Xrotation
					JOINT LeftHand
					{
						OFFSET 3.483560 -0.000000 -0.000000 
						CHANNELS 3 Zrotation Yrotation Xrotation
						JOINT LeftHandIndex1
						{
							OFFSET 0.715260 -0.000000 -0.000000 
							CHANNELS 3 Zrotation Yrotation Xrotation
							End Site
							{
								OFFSET 0.000000 0.000000 0.000000 
							}
						}
					}
				}
			}
			JOINT RightArm
			{
				OFFSET -3.136600 1.374050 -0.404650 
				CHANNELS 3 Zrotation Yrotation Xrotation
				JOINT RightForeArm
				{
					OFFSET -5.241900 -0.000000 -0.000000 
					CHANNELS 3 Zrotation Yrotation Xrotation
					JOINT RightHand
					{
						OFFSET -3.444170 -0.000000 -0.000000 
						CHANNELS 3 Zrotation Yrotation Xrotation
						JOINT RightHandIndex1
						{
							OFFSET -0.622530 -0.000000 -0.000000 
							CHANNELS 3 Zrotation Yrotation Xrotation
							End Site
							{
								OFFSET 0.000000 0.000000 0.000000 
							}
						}
					}
				}
			}
		}
	}
}
MOTION
Frames: 9
Frame Time: 0.041667
3.851224 17.654553 -17.974684 0.992034 -2.445649 -0.986585 -16.058364 -2.491176 -13.450290 0.100963 8.645893 23.929307 2.013141 -7.120937 5.952403 0.000100 -0.077300 -0.212300 15.084677 1.662559 -12.277596 -10.993795 -18.517745 62.876163 1.865510 -12.913198 6.852001 -0.391600 -4.018400 11.128400 0.005667 3.145852 -2.813212 -0.194724 1.956747 1.709602 5.966005 -2.171624 14.153026 4.294500 -1.403600 10.105700 -81.031960 3.763739 -0.695183 6.670792 -16.018719 -0.515283 0.595249 -1.960683 21.341364 -7.125000 0.000000 0.000000 87.448576 10.983581 13.742488 -18.076364 28.819112 -4.885498 0.110852 -0.402587 -18.144439 7.125000 0.000000 0.000000 
3.858033 17.637784 -17.807809 1.018418 -2.000470 -1.040794 -16.242037 -2.554711 -13.007136 0.180381 8.781850 24.333518 2.066906 -7.480513 5.243013 0.000600 -0.163700 -0.449800 14.902485 1.644239 -13.707958 -11.003633 -18.550176 63.062613 1.745236 -11.761730 5.342688 -0.399700 -4.059000 11.242700 0.045839 2.857050 -2.831390 -0.078731 1.798769 1.601052 5.971275 -2.106287 14.130691 4.250300 -1.357300 10.077400 -81.065085 2.616605 0.199845 6.670590 -15.986060 -0.556577 0.572124 -1.926504 20.500547 -7.125000 0.000000 0.000000 87.644265 10.168762 13.218595 -17.671676 28.336704 -4.700982 0.103037 -0.406668 -17.535524 7.125000 0.000000 0.000000 
3.865859 17.613597 -17.647134 1.270972 -1.566861 -1.194966 -16.673204 -2.838204 -12.309865 0.240414 8.888974 24.632066 2.058738 -7.511111 4.502171 0.005200 -0.467400 -1.284200 14.488795 1.565441 -15.032751 -10.977238 -18.564776 63.116597 1.630166 -10.700848 3.664753 -0.382800 -3.973300 11.001500 0.094621 2.603371 -2.825834 0.326652 1.647121 1.531123 6.201366 -2.046750 14.144523 4.454100 -1.344700 10.078500 -81.251597 1.647988 1.565295 6.822710 -16.277331 -0.683150 0.602035 -1.874107 19.223859 -7.125000 0.000000 0.000000 87.537142 9.435667 12.723590 -17.314246 27.897757 -4.538053 0.098184 -0.403460 -17.132594 7.125000 0.000000 0.000000 
3.868501 17.594491 -17.483918 1.403089 -1.076361 -1.257073 -16.947395 -3.088841 -11.712576 0.298994 8.985996 24.912155 2.091532 -7.728241 3.784314 0.008200 -0.586300 -1.611000 14.246666 1.586253 -16.385110 -10.925588 -18.568949 63.074533 1.533721 -9.835739 1.846278 -0.411800 -4.119500 11.413100 0.122410 2.318078 -2.812772 0.498302 1.484265 1.567212 6.378121 -2.014280 14.247890 4.610300 -1.341900 10.118100 -81.462507 0.306589 2.101618 6.969790 -16.470437 -0.732233 0.625054 -1.863348 18.843861 -7.125000 0.000000 0.000000 87.558451 8.646358 12.488258 -17.096240 27.625331 -4.439497 0.122229 -0.390735 -17.062953 7.125000 0.000000 0.000000 
3.869314 17.577010 -17.311962 1.810486 -0.663393 -1.346673 -17.519911 -3.273745 -11.096729 0.358360 9.079376 25.186499 2.126876 -8.003353 3.137786 0.000800 -0.181800 -0.499500 13.666718 1.656331 -17.622601 -10.822460 -18.544941 62.848807 1.393386 -8.899716 0.233580 -0.401700 -4.069000 11.270900 0.065948 2.040320 -2.824029 0.313221 1.336147 1.445206 6.392094 -1.977730 14.250880 4.548100 -1.295600 10.100200 -81.234034 -0.901059 3.107151 7.188879 -16.764114 -0.754538 0.645181 -1.889706 18.024086 -7.125000 0.000000 0.000000 87.890696 7.831522 12.426499 -16.782622 27.251439 -4.299271 0.123851 -0.386134 -17.035842 7.125000 0.000000 0.000000 
3.878258 17.539509 -17.138279 2.625933 -0.362400 -1.539088 -18.578940 -3.408754 -10.320372 0.417913 9.181327 25.449728 2.123096 -8.086699 2.325948 0.000100 0.076000 0.208700 12.571707 1.569910 -18.719526 -10.671995 -18.494587 62.439937 1.210471 -7.879601 -0.891319 -0.288700 -3.455500 9.549600 0.106734 1.783081 -2.691719 1.070249 1.151144 2.027355 6.153170 -1.842068 14.023794 4.379100 -1.230900 9.951500 -81.531339 -1.980516 5.104567 7.670849 -17.684837 -0.928564 0.694910 -1.887114 16.198525 -7.125000 0.000000 0.000000 87.500219 7.576211 12.493317 -16.402644 26.792921 -4.128901 0.128375 -0.364389 -16.986770 7.125000 0.000000 0.000000 
3.882526 17.510850 -16.969778 3.011341 0.122242 -1.537018 -19.132882 -3.526170 -9.820784 0.475822 9.265622 25.687359 2.181064 -8.398757 1.450816 0.000000 -0.007800 -0.021500 11.978756 1.441172 -20.047441 -10.451591 -18.401106 61.779539 1.079682 -7.184017 -1.611319 -0.190000 -2.807200 7.742400 0.118060 1.366050 -2.729998 1.233946 0.929318 1.880376 6.086812 -1.663616 14.092433 4.340600 -1.151200 10.047100 -81.451308 -2.667176 6.224297 8.050052 -18.351677 -1.133557 0.683083 -1.848619 14.824471 -7.125000 0.000000 0.000000 87.588033 6.614108 12.411452 -16.186867 26.516406 -4.028131 0.120672 -0.356412 -16.688297 7.125000 0.000000 0.000000 
3.878867 17.499468 -16.801481 3.184609 0.695673 -1.468064 -19.390181 -3.566622 -9.476761 0.551595 9.373273 26.012460 2.278555 -8.887163 0.643536 0.000100 -0.051400 -0.141200 11.728599 1.365177 -21.370267 -10.158076 -18.261999 60.874778 0.979048 -6.663673 -2.216678 -0.097600 -2.014400 5.545600 0.122511 0.928762 -2.876574 1.235616 0.722860 1.199069 6.176735 -1.497352 14.306674 4.410100 -1.082700 10.223800 -81.224715 -3.336961 6.934816 8.198921 -18.550732 -1.248065 0.640372 -1.808344 13.744957 -7.125000 0.000000 0.000000 87.874101 5.217860 12.088882 -15.962131 26.194596 -3.921036 0.107135 -0.359304 -16.101298 7.125000 0.000000 0.000000 
3.876428 17.474975 -16.632472 3.330312 0.952821 -1.595590 -19.629226 -3.373682 -8.993876 0.647131 9.517865 26.435555 2.360707 -9.311326 -0.010442 0.000600 0.164000 0.450700 11.572526 1.505354 -22.261209 -9.793122 -18.091028 59.741942 0.893622 -6.239980 -2.782183 -0.057700 -1.550400 4.264700 0.153337 0.812479 -2.779316 1.531674 0.624360 1.649678 6.251122 -1.501668 14.316597 4.450600 -1.075300 10.268900 -81.178522 -4.887300 8.302030 8.336538 -18.785949 -1.306882 0.676203 -1.796777 12.401943 -7.125000 0.000000 0.000000 87.848816 4.680858 11.780321 -15.764857 25.975551 -3.841522 0.115568 -0.346348 -15.708391 7.125000 0.000000 0.000000 
